<?xml version="1.0" encoding="utf-8"?>
<!-- Generator: Adobe Illustrator 18.0.0, SVG Export Plug-In . SVG Version: 6.00 Build 0)  -->
<!DOCTYPE svg PUBLIC "-//W3C//DTD SVG 1.1//EN" "http://www.w3.org/Graphics/SVG/1.1/DTD/svg11.dtd">
<svg version="1.1" id="Layer_1" xmlns="http://www.w3.org/2000/svg" xmlns:xlink="http://www.w3.org/1999/xlink" x="0px" y="0px"
	 viewBox="0 0 200 200" enable-background="new 0 0 200 200" xml:space="preserve">
<path d="M171,105.3c0,6.2-5.1,11.3-11.3,11.3c-6.2,0-11.2-5-11.2-11.3c0-6.2,5-11.2,11.2-11.2C166,94.1,171,99.1,171,105.3z"/>
<path d="M162.5,158.8c0,6.2-5,11.2-11.3,11.2c-6.2,0-11.2-5-11.2-11.2c0-6.2,5-11.3,11.2-11.3C157.5,147.5,162.5,152.6,162.5,158.8z
	"/>
<circle cx="152.4" cy="49.9" r="11.2"/>
<path d="M51.7,118.6c0,8.3-6.7,15-15,15c-8.3,0-15-6.7-15-15c0-8.3,6.7-15,15-15C44.9,103.6,51.7,110.3,51.7,118.6z"/>
<path d="M111.1,105.1c0,8.3-6.7,15-15,15c-8.3,0-15-6.7-15-15c0-8.3,6.7-15,15-15C104.4,90.1,111.1,96.8,111.1,105.1z"/>
<g>
	<rect x="68.2" y="82" transform="matrix(-0.2942 -0.9557 0.9557 -0.2942 -14.125 207.2056)" width="2.5" height="53.7"/>
</g>
<g>
	<polygon points="104.2,96.1 103.3,92.9 139,60.2 140.7,62.4 	"/>
</g>
<g>
	<polygon points="137,150 102.3,111.4 103.4,108.8 138.6,148 	"/>
</g>
<g>
	<polygon points="95,103.5 143.3,103.5 143.5,106 95,106 	"/>
</g>
<circle fill="none" stroke="#000000" stroke-width="1.5" stroke-miterlimit="10" cx="152.4" cy="49.9" r="16.8"/>
<circle fill="none" stroke="#000000" stroke-width="1.5" stroke-miterlimit="10" cx="159.8" cy="105.1" r="16.8"/>
<circle fill="none" stroke="#000000" stroke-width="1.5" stroke-miterlimit="10" cx="151.3" cy="158.8" r="16.8"/>
</svg>
