<?xml version="1.0" encoding="utf-8"?>
<!-- Generator: Adobe Illustrator 18.0.0, SVG Export Plug-In . SVG Version: 6.00 Build 0)  -->
<!DOCTYPE svg PUBLIC "-//W3C//DTD SVG 1.1//EN" "http://www.w3.org/Graphics/SVG/1.1/DTD/svg11.dtd">
<svg version="1.1" id="Layer_1" xmlns="http://www.w3.org/2000/svg" xmlns:xlink="http://www.w3.org/1999/xlink" x="0px" y="0px"
	 viewBox="0 0 200 200" enable-background="new 0 0 200 200" xml:space="preserve">
<path d="M133.9,64.8h-0.7c-0.4,0-0.7-0.3-0.7-0.7c0-0.4,0.3-0.7,0.7-0.7h0.7c0.4,0,0.7,0.3,0.7,0.7
	C134.6,64.5,134.3,64.8,133.9,64.8L133.9,64.8z"/>
<path d="M129.4,64.8h-0.7c-0.4,0-0.7-0.3-0.7-0.7c0-0.4,0.3-0.7,0.7-0.7h0.7c0.4,0,0.7,0.3,0.7,0.7
	C130.2,64.5,129.8,64.8,129.4,64.8L129.4,64.8z"/>
<path d="M125,64.8h-0.7c-0.4,0-0.7-0.3-0.7-0.7c0-0.4,0.3-0.7,0.7-0.7h0.7c0.4,0,0.7,0.3,0.7,0.7C125.7,64.5,125.4,64.8,125,64.8
	L125,64.8z"/>
<path d="M120.5,64.8h-0.7c-0.4,0-0.7-0.3-0.7-0.7c0-0.4,0.3-0.7,0.7-0.7h0.7c0.4,0,0.7,0.3,0.7,0.7
	C121.3,64.5,120.9,64.8,120.5,64.8L120.5,64.8z"/>
<path d="M116.1,64.8h-0.7c-0.4,0-0.7-0.3-0.7-0.7c0-0.4,0.3-0.7,0.7-0.7h0.7c0.4,0,0.7,0.3,0.7,0.7
	C116.8,64.5,116.5,64.8,116.1,64.8L116.1,64.8z"/>
<path d="M111.6,64.8h-0.7c-0.4,0-0.7-0.3-0.7-0.7c0-0.4,0.3-0.7,0.7-0.7h0.7c0.4,0,0.7,0.3,0.7,0.7C112.4,64.5,112,64.8,111.6,64.8
	L111.6,64.8z"/>
<path d="M107.2,64.8h-0.7c-0.4,0-0.7-0.3-0.7-0.7c0-0.4,0.3-0.7,0.7-0.7h0.7c0.4,0,0.7,0.3,0.7,0.7
	C107.9,64.5,107.6,64.8,107.2,64.8L107.2,64.8z"/>
<path d="M102.7,64.8H102c-0.4,0-0.7-0.3-0.7-0.7c0-0.4,0.3-0.7,0.7-0.7h0.7c0.4,0,0.7,0.3,0.7,0.7C103.5,64.5,103.1,64.8,102.7,64.8
	L102.7,64.8z"/>
<path d="M98.3,64.8h-0.7c-0.4,0-0.7-0.3-0.7-0.7c0-0.4,0.3-0.7,0.7-0.7h0.7c0.4,0,0.7,0.3,0.7,0.7C99,64.5,98.7,64.8,98.3,64.8
	L98.3,64.8z"/>
<path d="M93.8,64.8h-0.7c-0.4,0-0.7-0.3-0.7-0.7c0-0.4,0.3-0.7,0.7-0.7h0.7c0.4,0,0.7,0.3,0.7,0.7C94.6,64.5,94.2,64.8,93.8,64.8
	L93.8,64.8z"/>
<path d="M89.4,64.8h-0.7c-0.4,0-0.7-0.3-0.7-0.7c0-0.4,0.3-0.7,0.7-0.7h0.7c0.4,0,0.7,0.3,0.7,0.7C90.1,64.5,89.8,64.8,89.4,64.8
	L89.4,64.8z"/>
<path d="M84.9,64.8h-0.7c-0.4,0-0.7-0.3-0.7-0.7c0-0.4,0.3-0.7,0.7-0.7h0.7c0.4,0,0.7,0.3,0.7,0.7C85.7,64.5,85.3,64.8,84.9,64.8
	L84.9,64.8z"/>
<path d="M80.5,64.8h-0.7c-0.4,0-0.7-0.3-0.7-0.7c0-0.4,0.3-0.7,0.7-0.7h0.7c0.4,0,0.7,0.3,0.7,0.7C81.2,64.5,80.9,64.8,80.5,64.8
	L80.5,64.8z"/>
<path d="M76,64.8h-0.7c-0.4,0-0.7-0.3-0.7-0.7c0-0.4,0.3-0.7,0.7-0.7H76c0.4,0,0.7,0.3,0.7,0.7C76.8,64.5,76.4,64.8,76,64.8L76,64.8
	z"/>
<path d="M71.6,64.8h-0.7c-0.4,0-0.7-0.3-0.7-0.7c0-0.4,0.3-0.7,0.7-0.7h0.7c0.4,0,0.7,0.3,0.7,0.7C72.3,64.5,72,64.8,71.6,64.8
	L71.6,64.8z"/>
<path d="M67.1,64.8h-0.7c-0.4,0-0.7-0.3-0.7-0.7c0-0.4,0.3-0.7,0.7-0.7h0.7c0.4,0,0.7,0.3,0.7,0.7C67.8,64.5,67.5,64.8,67.1,64.8
	L67.1,64.8z"/>
<path d="M59.6,64.8h-0.7c-0.4,0-0.7-0.3-0.7-0.7c0-0.4,0.3-0.7,0.7-0.7h0.7c0.4,0,0.7,0.3,0.7,0.7C60.3,64.5,60,64.8,59.6,64.8
	L59.6,64.8z"/>
<path d="M54.7,64.8h-0.7c-0.4,0-0.7-0.3-0.7-0.7c0-0.4,0.3-0.7,0.7-0.7h0.7c0.4,0,0.7,0.3,0.7,0.7C55.4,64.5,55.1,64.8,54.7,64.8
	L54.7,64.8z"/>
<path d="M49.8,64.8H49c-0.4,0-0.7-0.3-0.7-0.7c0-0.4,0.3-0.7,0.7-0.7h0.7c0.4,0,0.7,0.3,0.7,0.7C50.5,64.5,50.2,64.8,49.8,64.8
	L49.8,64.8z"/>
<path d="M44.8,64.8h-0.7c-0.4,0-0.7-0.3-0.7-0.7c0-0.4,0.3-0.7,0.7-0.7h0.7c0.4,0,0.7,0.3,0.7,0.7C45.6,64.5,45.3,64.8,44.8,64.8
	L44.8,64.8z"/>
<g>
	<path d="M91.2,95.7h-0.7c-0.4,0-0.7-0.3-0.7-0.7c0-0.4,0.3-0.7,0.7-0.7h0.7c0.4,0,0.7,0.3,0.7,0.7C92,95.4,91.6,95.7,91.2,95.7
		L91.2,95.7z M86.8,95.7H86c-0.4,0-0.7-0.3-0.7-0.7c0-0.4,0.3-0.7,0.7-0.7h0.7c0.4,0,0.7,0.3,0.7,0.7C87.5,95.4,87.2,95.7,86.8,95.7
		L86.8,95.7z M82.3,95.7h-0.7c-0.4,0-0.7-0.3-0.7-0.7c0-0.4,0.3-0.7,0.7-0.7h0.7c0.4,0,0.7,0.3,0.7,0.7
		C83.1,95.4,82.7,95.7,82.3,95.7L82.3,95.7z M77.9,95.7h-0.7c-0.4,0-0.7-0.3-0.7-0.7c0-0.4,0.3-0.7,0.7-0.7h0.7
		c0.4,0,0.7,0.3,0.7,0.7C78.6,95.4,78.3,95.7,77.9,95.7L77.9,95.7z M51.2,95.7h-0.7c-0.4,0-0.7-0.3-0.7-0.7c0-0.4,0.3-0.7,0.7-0.7
		h0.7c0.4,0,0.7,0.3,0.7,0.7C51.9,95.4,51.6,95.7,51.2,95.7L51.2,95.7z M46.7,95.7H46c-0.4,0-0.7-0.3-0.7-0.7c0-0.4,0.3-0.7,0.7-0.7
		h0.7c0.4,0,0.7,0.3,0.7,0.7C47.4,95.4,47.1,95.7,46.7,95.7L46.7,95.7z"/>
</g>
<path d="M159.2,126.6c-0.4,0-0.8-0.3-0.8-0.7c0-0.4,0.3-0.7,0.7-0.7h0.1c0.4,0,0.7,0.3,0.7,0.7C159.9,126.3,159.6,126.6,159.2,126.6
	L159.2,126.6z"/>
<path d="M155.4,126.6h-0.7c-0.4,0-0.7-0.3-0.7-0.7c0-0.4,0.3-0.7,0.7-0.7h0.7c0.4,0,0.7,0.3,0.7,0.7
	C156.2,126.3,155.8,126.6,155.4,126.6L155.4,126.6z"/>
<path d="M151,126.6h-0.7c-0.4,0-0.7-0.3-0.7-0.7c0-0.4,0.3-0.7,0.7-0.7h0.7c0.4,0,0.7,0.3,0.7,0.7
	C151.7,126.3,151.4,126.6,151,126.6L151,126.6z"/>
<path d="M146.5,126.6h-0.7c-0.4,0-0.7-0.3-0.7-0.7c0-0.4,0.3-0.7,0.7-0.7h0.7c0.4,0,0.7,0.3,0.7,0.7
	C147.3,126.3,146.9,126.6,146.5,126.6L146.5,126.6z"/>
<path d="M142.1,126.6h-0.7c-0.4,0-0.7-0.3-0.7-0.7c0-0.4,0.3-0.7,0.7-0.7h0.7c0.4,0,0.7,0.3,0.7,0.7
	C142.8,126.3,142.5,126.6,142.1,126.6L142.1,126.6z"/>
<path d="M137.6,126.6h-0.7c-0.4,0-0.7-0.3-0.7-0.7c0-0.4,0.3-0.7,0.7-0.7h0.7c0.4,0,0.7,0.3,0.7,0.7
	C138.4,126.3,138,126.6,137.6,126.6L137.6,126.6z"/>
<path d="M133.2,126.6h-0.7c-0.4,0-0.7-0.3-0.7-0.7c0-0.4,0.3-0.7,0.7-0.7h0.7c0.4,0,0.7,0.3,0.7,0.7
	C133.9,126.3,133.6,126.6,133.2,126.6L133.2,126.6z"/>
<path d="M128.7,126.6H128c-0.4,0-0.7-0.3-0.7-0.7c0-0.4,0.3-0.7,0.7-0.7h0.7c0.4,0,0.7,0.3,0.7,0.7
	C129.4,126.3,129.1,126.6,128.7,126.6L128.7,126.6z"/>
<path d="M124.3,126.6h-0.7c-0.4,0-0.7-0.3-0.7-0.7c0-0.4,0.3-0.7,0.7-0.7h0.7c0.4,0,0.7,0.3,0.7,0.7
	C125,126.3,124.7,126.6,124.3,126.6L124.3,126.6z"/>
<path d="M93.1,126.6h-0.7c-0.4,0-0.7-0.3-0.7-0.7c0-0.4,0.3-0.7,0.7-0.7h0.7c0.4,0,0.7,0.3,0.7,0.7
	C93.8,126.3,93.5,126.6,93.1,126.6L93.1,126.6z"/>
<path d="M88.6,126.6h-0.7c-0.4,0-0.7-0.3-0.7-0.7c0-0.4,0.3-0.7,0.7-0.7h0.7c0.4,0,0.7,0.3,0.7,0.7C89.4,126.3,89,126.6,88.6,126.6
	L88.6,126.6z"/>
<path d="M84.2,126.6h-0.7c-0.4,0-0.7-0.3-0.7-0.7c0-0.4,0.3-0.7,0.7-0.7h0.7c0.4,0,0.7,0.3,0.7,0.7
	C84.9,126.3,84.6,126.6,84.2,126.6L84.2,126.6z"/>
<path d="M79.7,126.6H79c-0.4,0-0.7-0.3-0.7-0.7c0-0.4,0.3-0.7,0.7-0.7h0.7c0.4,0,0.7,0.3,0.7,0.7C80.5,126.3,80.1,126.6,79.7,126.6
	L79.7,126.6z"/>
<path d="M48.6,126.6h-0.7c-0.4,0-0.7-0.3-0.7-0.7c0-0.4,0.3-0.7,0.7-0.7h0.7c0.4,0,0.7,0.3,0.7,0.7C49.3,126.3,49,126.6,48.6,126.6
	L48.6,126.6z"/>
<path d="M63.5,153.3c-0.4,0-0.7-0.3-0.7-0.7c0-0.4,0.3-0.8,0.7-0.8c0.4,0,0.7,0.3,0.7,0.7v0.1C64.3,152.9,63.9,153.3,63.5,153.3
	L63.5,153.3z"/>
<path d="M63.5,149.5c-0.4,0-0.7-0.3-0.7-0.7V148c0-0.4,0.3-0.7,0.7-0.7c0.4,0,0.7,0.3,0.7,0.7v0.7C64.3,149.2,63.9,149.5,63.5,149.5
	L63.5,149.5z"/>
<path d="M63.5,118.3c-0.4,0-0.7-0.3-0.7-0.7v-0.7c0-0.4,0.3-0.7,0.7-0.7c0.4,0,0.7,0.3,0.7,0.7v0.7C64.3,118,63.9,118.3,63.5,118.3
	L63.5,118.3z"/>
<path d="M63.5,87.2c-0.4,0-0.7-0.3-0.7-0.7v-0.7c0-0.4,0.3-0.7,0.7-0.7c0.4,0,0.7,0.3,0.7,0.7v0.7C64.3,86.8,63.9,87.2,63.5,87.2
	L63.5,87.2z"/>
<path d="M63.5,82.7c-0.4,0-0.7-0.3-0.7-0.7v-0.7c0-0.4,0.3-0.7,0.7-0.7c0.4,0,0.7,0.3,0.7,0.7V82C64.3,82.4,63.9,82.7,63.5,82.7
	L63.5,82.7z"/>
<path d="M63.5,78.3c-0.4,0-0.7-0.3-0.7-0.7v-0.7c0-0.4,0.3-0.7,0.7-0.7c0.4,0,0.7,0.3,0.7,0.7v0.7C64.3,77.9,63.9,78.3,63.5,78.3
	L63.5,78.3z"/>
<path d="M63.5,73.8c-0.4,0-0.7-0.3-0.7-0.7v-0.7c0-0.4,0.3-0.7,0.7-0.7c0.4,0,0.7,0.3,0.7,0.7v0.7C64.3,73.5,63.9,73.8,63.5,73.8
	L63.5,73.8z"/>
<path d="M63.5,69.4c-0.4,0-0.7-0.3-0.7-0.7v-0.7c0-0.4,0.3-0.7,0.7-0.7c0.4,0,0.7,0.3,0.7,0.7v0.7C64.3,69,63.9,69.4,63.5,69.4
	L63.5,69.4z"/>
<path d="M63.5,64.9c-0.4,0-0.7-0.3-0.7-0.7v-0.7c0-0.4,0.3-0.7,0.7-0.7c0.4,0,0.7,0.3,0.7,0.7v0.7C64.3,64.6,63.9,64.9,63.5,64.9
	L63.5,64.9z"/>
<path d="M63.5,60.5c-0.4,0-0.7-0.3-0.7-0.7V59c0-0.4,0.3-0.7,0.7-0.7c0.4,0,0.7,0.3,0.7,0.7v0.7C64.3,60.1,63.9,60.5,63.5,60.5
	L63.5,60.5z"/>
<path d="M63.5,56c-0.4,0-0.7-0.3-0.7-0.7v-0.7c0-0.4,0.3-0.7,0.7-0.7c0.4,0,0.7,0.3,0.7,0.7v0.7C64.3,55.7,63.9,56,63.5,56L63.5,56z
	"/>
<path d="M63.5,51.5c-0.4,0-0.7-0.3-0.7-0.7v-0.7c0-0.4,0.3-0.7,0.7-0.7c0.4,0,0.7,0.3,0.7,0.7v0.7C64.3,51.2,63.9,51.5,63.5,51.5
	L63.5,51.5z"/>
<path d="M63.5,47.1c-0.4,0-0.7-0.3-0.7-0.7v-0.7c0-0.4,0.3-0.7,0.7-0.7c0.4,0,0.7,0.3,0.7,0.7v0.7C64.3,46.8,63.9,47.1,63.5,47.1
	L63.5,47.1z"/>
<path d="M105.3,153.3c-0.4,0-0.7-0.3-0.7-0.7c0-0.4,0.3-0.8,0.7-0.8c0.4,0,0.7,0.3,0.7,0.7v0.1C106,152.9,105.7,153.3,105.3,153.3
	L105.3,153.3z"/>
<path d="M105.3,149.5c-0.4,0-0.7-0.3-0.7-0.7V148c0-0.4,0.3-0.7,0.7-0.7c0.4,0,0.7,0.3,0.7,0.7v0.7
	C106,149.2,105.7,149.5,105.3,149.5L105.3,149.5z"/>
<path d="M105.3,145c-0.4,0-0.7-0.3-0.7-0.7v-0.7c0-0.4,0.3-0.7,0.7-0.7c0.4,0,0.7,0.3,0.7,0.7v0.7C106,144.7,105.7,145,105.3,145
	L105.3,145z"/>
<path d="M105.3,140.6c-0.4,0-0.7-0.3-0.7-0.7v-0.7c0-0.4,0.3-0.7,0.7-0.7c0.4,0,0.7,0.3,0.7,0.7v0.7
	C106,140.3,105.7,140.6,105.3,140.6L105.3,140.6z"/>
<path d="M105.3,109.4c-0.4,0-0.7-0.3-0.7-0.7v-0.7c0-0.4,0.3-0.7,0.7-0.7c0.4,0,0.7,0.3,0.7,0.7v0.7
	C106,109.1,105.7,109.4,105.3,109.4L105.3,109.4z"/>
<path d="M105.3,78.3c-0.4,0-0.7-0.3-0.7-0.7v-0.7c0-0.4,0.3-0.7,0.7-0.7c0.4,0,0.7,0.3,0.7,0.7v0.7C106,77.9,105.7,78.3,105.3,78.3
	L105.3,78.3z"/>
<path d="M105.3,73.8c-0.4,0-0.7-0.3-0.7-0.7v-0.7c0-0.4,0.3-0.7,0.7-0.7c0.4,0,0.7,0.3,0.7,0.7v0.7C106,73.5,105.7,73.8,105.3,73.8
	L105.3,73.8z"/>
<path d="M105.3,69.4c-0.4,0-0.7-0.3-0.7-0.7v-0.7c0-0.4,0.3-0.7,0.7-0.7c0.4,0,0.7,0.3,0.7,0.7v0.7C106,69,105.7,69.4,105.3,69.4
	L105.3,69.4z"/>
<path d="M105.3,60.5c-0.4,0-0.7-0.3-0.7-0.7V59c0-0.4,0.3-0.7,0.7-0.7c0.4,0,0.7,0.3,0.7,0.7v0.7C106,60.1,105.7,60.5,105.3,60.5
	L105.3,60.5z"/>
<path d="M105.3,56c-0.4,0-0.7-0.3-0.7-0.7v-0.7c0-0.4,0.3-0.7,0.7-0.7c0.4,0,0.7,0.3,0.7,0.7v0.7C106,55.7,105.7,56,105.3,56
	L105.3,56z"/>
<path d="M105.3,51.5c-0.4,0-0.7-0.3-0.7-0.7v-0.7c0-0.4,0.3-0.7,0.7-0.7c0.4,0,0.7,0.3,0.7,0.7v0.7C106,51.2,105.7,51.5,105.3,51.5
	L105.3,51.5z"/>
<path d="M105.3,47.1c-0.4,0-0.7-0.3-0.7-0.7v-0.7c0-0.4,0.3-0.7,0.7-0.7c0.4,0,0.7,0.3,0.7,0.7v0.7C106,46.8,105.7,47.1,105.3,47.1
	L105.3,47.1z"/>
<path d="M148.2,153.3c-0.4,0-0.7-0.3-0.7-0.7c0-0.4,0.3-0.8,0.7-0.8c0.4,0,0.7,0.3,0.7,0.7v0.1C148.9,152.9,148.6,153.3,148.2,153.3
	L148.2,153.3z"/>
<path d="M148.2,149.5c-0.4,0-0.7-0.3-0.7-0.7V148c0-0.4,0.3-0.7,0.7-0.7c0.4,0,0.7,0.3,0.7,0.7v0.7
	C148.9,149.2,148.6,149.5,148.2,149.5L148.2,149.5z"/>
<path d="M148.2,145c-0.4,0-0.7-0.3-0.7-0.7v-0.7c0-0.4,0.3-0.7,0.7-0.7c0.4,0,0.7,0.3,0.7,0.7v0.7C148.9,144.7,148.6,145,148.2,145
	L148.2,145z"/>
<path d="M148.2,140.6c-0.4,0-0.7-0.3-0.7-0.7v-0.7c0-0.4,0.3-0.7,0.7-0.7c0.4,0,0.7,0.3,0.7,0.7v0.7
	C148.9,140.3,148.6,140.6,148.2,140.6L148.2,140.6z"/>
<path d="M148.2,136.1c-0.4,0-0.7-0.3-0.7-0.7v-0.7c0-0.4,0.3-0.7,0.7-0.7c0.4,0,0.7,0.3,0.7,0.7v0.7
	C148.9,135.8,148.6,136.1,148.2,136.1L148.2,136.1z"/>
<path d="M148.2,131.7c-0.4,0-0.7-0.3-0.7-0.7v-0.7c0-0.4,0.3-0.7,0.7-0.7c0.4,0,0.7,0.3,0.7,0.7v0.7
	C148.9,131.4,148.6,131.7,148.2,131.7L148.2,131.7z"/>
<path d="M148.2,122.8c-0.4,0-0.7-0.3-0.7-0.7v-0.7c0-0.4,0.3-0.7,0.7-0.7c0.4,0,0.7,0.3,0.7,0.7v0.7
	C148.9,122.5,148.6,122.8,148.2,122.8L148.2,122.8z"/>
<path d="M148.2,118.3c-0.4,0-0.7-0.3-0.7-0.7v-0.7c0-0.4,0.3-0.7,0.7-0.7c0.4,0,0.7,0.3,0.7,0.7v0.7
	C148.9,118,148.6,118.3,148.2,118.3L148.2,118.3z"/>
<path d="M148.2,113.9c-0.4,0-0.7-0.3-0.7-0.7v-0.7c0-0.4,0.3-0.7,0.7-0.7c0.4,0,0.7,0.3,0.7,0.7v0.7
	C148.9,113.6,148.6,113.9,148.2,113.9L148.2,113.9z"/>
<path d="M148.2,82.7c-0.4,0-0.7-0.3-0.7-0.7v-0.7c0-0.4,0.3-0.7,0.7-0.7c0.4,0,0.7,0.3,0.7,0.7V82C148.9,82.4,148.6,82.7,148.2,82.7
	L148.2,82.7z"/>
<path d="M148.2,51.5c-0.4,0-0.7-0.3-0.7-0.7v-0.7c0-0.4,0.3-0.7,0.7-0.7c0.4,0,0.7,0.3,0.7,0.7v0.7
	C148.9,51.2,148.6,51.5,148.2,51.5L148.2,51.5z"/>
<path d="M148.2,47.1c-0.4,0-0.7-0.3-0.7-0.7v-0.7c0-0.4,0.3-0.7,0.7-0.7c0.4,0,0.7,0.3,0.7,0.7v0.7
	C148.9,46.8,148.6,47.1,148.2,47.1L148.2,47.1z"/>
<path d="M148.1,55c-6.4,0-11.6,5.2-11.6,11.6c0,2.8,1,5.4,2.7,7.4c-5.6,7.9-21.9,30.7-27.1,38c-1.3-0.5-2.6-0.8-4.1-0.8
	c-3.6,0-6.8,1.6-9,4.2l-24.6-11.3c0.1-0.6,0.2-1.3,0.2-2c0-6.4-5.2-11.6-11.6-11.6c-6.4,0-11.6,5.2-11.6,11.6
	c0,6.4,5.2,11.6,11.6,11.6c3.6,0,6.8-1.6,9-4.2l24.6,11.3c-0.1,0.6-0.2,1.3-0.2,1.9c0,6.4,5.2,11.6,11.6,11.6s11.6-5.2,11.6-11.6
	c0-2.9-1-5.5-2.7-7.5c2.3-3.1,6.4-8.7,13.8-19.1L144,77.6c1.3,0.5,2.6,0.8,4.1,0.8c6.4,0,11.6-5.2,11.6-11.6S154.5,55,148.1,55z
	 M62.8,108c-3.1,0-5.6-2.5-5.6-5.6s2.5-5.6,5.6-5.6c3.1,0,5.6,2.5,5.6,5.6C68.5,105.5,65.9,108,62.8,108z M107.9,128.7
	c-3.1,0-5.6-2.5-5.6-5.6c0-3.1,2.5-5.6,5.6-5.6s5.6,2.5,5.6,5.6C113.5,126.1,111,128.7,107.9,128.7z M148.1,72.3
	c-3.1,0-5.6-2.5-5.6-5.6c0-3.1,2.5-5.6,5.6-5.6c3.1,0,5.6,2.5,5.6,5.6C153.7,69.8,151.2,72.3,148.1,72.3z"/>
<path d="M146.6,85.8c-5.1,0-9.4,3.3-11,7.8l-18.9-1.4c-0.9-5.5-5.7-9.8-11.5-9.8c-6.4,0-11.6,5.2-11.6,11.6c0,1.8,0.4,3.6,1.2,5.1
	c-2.2,1.9-5.6,5-10.9,9.7l-16.2,14.5c-1.8-1.2-4-1.9-6.4-1.9c-6.4,0-11.6,5.2-11.6,11.6c0,6.4,5.2,11.6,11.6,11.6
	c6.4,0,11.6-5.2,11.6-11.6c0-1.9-0.5-3.6-1.2-5.2c6.7-6,21.2-18.9,27.1-24.2c1.8,1.2,4.1,1.9,6.4,1.9c5,0,9.2-3.1,10.9-7.5l19,1.4
	c1,5.4,5.8,9.5,11.4,9.5c6.4,0,11.6-5.2,11.6-11.6C158.2,91.1,153,85.8,146.6,85.8z M61.3,138.8c-3.1,0-5.6-2.5-5.6-5.6
	c0-3.1,2.5-5.6,5.6-5.6s5.6,2.5,5.6,5.6C67,136.3,64.4,138.8,61.3,138.8z M105.3,99.7c-2.2,0-4.1-1.3-5-3.1l-0.1-0.4l-0.1,0.1
	c-0.3-0.7-0.5-1.4-0.5-2.2c0-3.1,2.5-5.6,5.6-5.6c3.1,0,5.6,2.5,5.6,5.6C110.9,97.2,108.4,99.7,105.3,99.7z M146.6,103.1
	c-3.1,0-5.6-2.5-5.6-5.6c0-3.1,2.5-5.6,5.6-5.6c3.1,0,5.6,2.5,5.6,5.6C152.2,100.6,149.7,103.1,146.6,103.1z"/>
<path d="M165.9,165.7H34.1c-2.1,0-3.7-1.7-3.7-3.7V42.9c0-2,1.7-3.7,3.7-3.7c2,0,3.7,1.7,3.7,3.7v115.4h128c2,0,3.7,1.7,3.7,3.7
	C169.6,164,167.9,165.7,165.9,165.7L165.9,165.7z"/>
</svg>
